<svg width="142" height="56" viewBox="0 0 142 56" fill="none" xmlns="http://www.w3.org/2000/svg">
<path d="M10.6595 17.2651C10.109 17.4653 9.50848 17.6155 9.05808 17.6155C7.85701 17.6155 7.15638 17.0149 7.15638 15.5136V10.5592H11.3601V6.95595H7.15638V2.80225H2.55228V7.00599H0V10.6092H2.60232V16.014C2.60232 19.7674 4.75424 21.7191 8.30741 21.7191C9.90884 21.7191 11.0599 21.2687 12.2109 20.6682L10.6595 17.2651Z" fill="white"/>
<path d="M22.6201 6.5557C20.8185 6.5557 19.3172 7.20628 18.2162 8.35731V1.15088H13.6621V21.2688H18.2162V14.6629C18.2162 11.9105 19.3672 10.6594 21.1688 10.6594C22.6701 10.6594 23.621 11.8104 23.621 13.4619V21.2688H28.125V12.511C28.125 8.9078 25.923 6.5557 22.6201 6.5557Z" fill="white"/>
<path d="M40.5863 16.4145C39.8356 17.8157 38.5845 18.0659 37.5336 18.0659C35.9822 18.0659 34.8311 17.015 34.4808 15.3135H44.9402V14.1625C44.8401 9.5083 41.5872 6.60571 37.5836 6.60571C33.4299 6.60571 30.0269 9.65844 30.0269 14.1625C30.0269 18.6665 33.4299 21.7192 37.5836 21.7192C40.6363 21.7192 43.1386 20.4681 44.4397 17.8157L40.5863 16.4145ZM37.5836 10.259C38.8848 10.259 40.0358 10.9596 40.4361 12.511H34.5809C34.9813 11.0597 36.2824 10.259 37.5836 10.259Z" fill="white"/>
<path d="M141.326 46.6415C141.326 48.9936 139.324 50.9954 137.072 50.9954C134.77 50.9954 132.769 48.9936 132.769 46.6415C132.769 44.3394 134.77 42.3877 137.072 42.3877C139.324 42.3877 141.326 44.3394 141.326 46.6415Z" fill="white"/>
<path d="M66.7594 21.5693H62.1052V20.4183C60.9042 21.4692 59.4028 22.0197 57.6012 22.0197C55.6495 22.0197 53.9479 21.3191 52.5467 19.8678C51.1454 18.4165 50.4448 16.5648 50.4448 14.3128C50.4448 12.0608 51.1454 10.2092 52.5467 8.80792C53.9479 7.35663 55.5994 6.65601 57.6012 6.65601C59.4028 6.65601 60.9542 7.15645 62.1052 8.25743V7.10641H66.7594V21.5693ZM61.0543 17.0152C61.7549 16.3146 62.1052 15.4138 62.1052 14.3128C62.1052 13.2619 61.7549 12.3611 61.0543 11.6104C60.3537 10.9098 59.5029 10.5595 58.5521 10.5595C57.5512 10.5595 56.7004 10.9098 56.0498 11.6104C55.3992 12.311 55.0489 13.2119 55.0489 14.3128C55.0489 15.4639 55.3492 16.3647 56.0498 17.0152C56.7004 17.7159 57.5512 18.0662 58.5521 18.0662C59.5029 18.0662 60.3537 17.7159 61.0543 17.0152Z" fill="white"/>
<path d="M85.3258 20.1678C85.3258 22.3197 84.5751 24.0713 83.0738 25.2724C81.5725 26.4734 79.6207 27.074 77.1685 27.074C73.7154 27.074 71.3133 25.9229 69.862 23.5708L73.7154 21.469C74.2659 22.1195 74.7664 22.62 75.2668 22.8702C75.7673 23.1204 76.3678 23.2706 77.0684 23.2706C78.1194 23.2706 79.0202 22.9703 79.6708 22.3197C80.3213 21.7192 80.6717 20.8684 80.6717 19.7174V19.317C79.6207 20.2679 78.1694 20.7183 76.3178 20.7183C74.366 20.7183 72.7146 20.0177 71.3633 18.6665C70.0121 17.3153 69.3115 15.6137 69.3115 13.5619C69.3115 11.5601 70.0121 9.90865 71.3633 8.55745C72.7146 7.20624 74.366 6.55566 76.3178 6.55566C78.1194 6.55566 79.5707 7.00607 80.6717 7.95691V7.00607H85.2257L85.3258 20.1678ZM77.3687 17.065C78.3196 17.065 79.1203 16.7648 79.8209 16.1142C80.4715 15.4636 80.8218 14.6629 80.8218 13.712C80.8218 12.7612 80.5215 11.9605 79.8209 11.3599C79.1703 10.7094 78.3696 10.4091 77.3687 10.4091C76.3678 10.4091 75.5171 10.7094 74.8665 11.3599C74.2159 11.9605 73.9156 12.7612 73.9156 13.712C73.9156 14.6629 74.2159 15.4636 74.9165 16.0641C75.5671 16.7147 76.4179 17.015 77.4188 17.015L77.3687 17.065Z" fill="white"/>
<path d="M89.1294 21.6193V7.10634H93.7835V21.6193H89.1294ZM94.1338 2.70241C94.1338 4.20375 92.9328 5.40482 91.4314 5.40482C89.9301 5.40482 88.729 4.20375 88.729 2.70241C88.729 1.20107 89.9301 0 91.4314 0C92.9328 0 94.1338 1.25112 94.1338 2.70241Z" fill="white"/>
<path d="M97.5371 21.5691V1.15088H102.191V21.519H97.5371V21.5691Z" fill="white"/>
<path d="M120.007 15.5139H109.348C109.548 16.3647 109.948 17.0653 110.499 17.5657C111.049 18.0662 111.7 18.3164 112.501 18.3164C113.952 18.3164 115.003 17.7659 115.603 16.6149L119.707 17.4656C119.106 18.967 118.156 20.118 116.905 20.8687C115.653 21.6194 114.202 22.0197 112.451 22.0197C110.299 22.0197 108.497 21.3191 106.996 19.8678C105.494 18.4165 104.744 16.5648 104.744 14.3128C104.744 12.0608 105.494 10.2092 106.996 8.80792C108.497 7.40668 110.299 6.65601 112.451 6.65601C114.552 6.65601 116.354 7.35663 117.755 8.75788C119.157 10.1591 119.857 12.0108 119.907 14.3629L120.007 15.5139ZM110.599 11.0099C109.998 11.4102 109.598 11.9607 109.398 12.7114H115.403C115.203 11.9607 114.803 11.3602 114.302 11.0099C113.802 10.6095 113.151 10.4094 112.501 10.4094C111.85 10.4094 111.199 10.6095 110.599 11.0099Z" fill="white"/>
<path d="M21.1688 36.1824C22.7703 36.1824 24.0714 36.7329 25.1724 37.8339C26.2233 38.9348 26.7738 40.3361 26.7738 42.0877V51.1958H22.1697V43.0385C22.1697 42.2378 21.9195 41.5872 21.4691 41.0868C21.0187 40.5863 20.4182 40.3361 19.7175 40.3361C18.8668 40.3361 18.1662 40.6364 17.6157 41.2869C17.1152 41.9375 16.8149 42.8383 16.8149 43.9893V51.0957H12.1608V43.0385C12.1608 42.2378 11.9106 41.5872 11.4602 41.0868C11.0098 40.5863 10.4092 40.3361 9.70861 40.3361C8.85785 40.3361 8.15723 40.6364 7.70683 41.2869C7.20638 41.9375 7.0062 42.8383 7.0062 43.9893V51.0957H2.35205V36.5827H7.0062V37.9339C8.05714 36.7329 9.50843 36.1824 11.31 36.1824C13.462 36.1824 15.0634 36.9831 16.0643 38.6346C17.2654 36.9331 18.9669 36.1323 21.1688 36.1824Z" fill="white"/>
<path d="M42.7882 38.3341C44.3395 39.7353 45.0902 41.5869 45.0902 43.7889C45.0902 46.0409 44.2895 47.8926 42.7882 49.2938C41.2368 50.6951 39.3851 51.4457 37.1331 51.4457C34.8811 51.4457 32.9794 50.7451 31.378 49.2938C29.8266 47.8926 29.0259 46.0409 29.0259 43.7889C29.0259 41.5369 29.8266 39.7353 31.378 38.3341C32.9294 36.9328 34.8311 36.1821 37.1331 36.1821C39.3851 36.1821 41.2868 36.9328 42.7882 38.3341ZM39.6353 46.5414C40.336 45.8407 40.6863 44.9399 40.6863 43.839C40.6863 42.738 40.336 41.8372 39.6353 41.1365C38.9347 40.4359 38.134 40.0856 37.1832 40.0856C36.2323 40.0856 35.3815 40.4359 34.6809 41.1365C33.9803 41.8372 33.63 42.738 33.63 43.839C33.63 44.9399 33.9803 45.8407 34.6809 46.5414C35.3815 47.242 36.2323 47.5923 37.1832 47.5923C38.134 47.5923 38.9347 47.242 39.6353 46.5414Z" fill="white"/>
<path d="M56.7507 36.1821C58.4522 36.1821 59.8034 36.7326 60.8544 37.8336C61.9053 38.9346 62.4057 40.3859 62.4057 42.1875V51.0954H57.8016V43.1884C57.8016 42.3376 57.5514 41.637 57.101 41.1365C56.6506 40.6361 56.0501 40.3358 55.2994 40.3358C54.3486 40.3358 53.5979 40.6361 53.0974 41.3367C52.597 41.9873 52.2967 43.0382 52.2967 44.3894V51.1455H47.6426V36.6325H52.2967V37.9337C53.4478 36.7326 54.9491 36.1321 56.7507 36.1321V36.1821Z" fill="white"/>
<path d="M76.0177 51.0955L71.3135 45.8408H70.4627V51.0955H65.8086V30.8274H70.4627V41.5369H71.1133L75.7174 36.5825H81.3224L74.9668 43.4887L82.0231 51.0955H76.0177Z" fill="white"/>
<path d="M97.0366 45.0901H86.3771C86.5772 45.9408 86.9776 46.6415 87.5281 47.1419C88.0786 47.6424 88.7292 47.8926 89.5299 47.8926C90.9812 47.8926 92.0321 47.3421 92.6326 46.1911L96.7363 47.0418C96.1358 48.5432 95.1849 49.6942 93.9338 50.4449C92.6827 51.1955 91.2314 51.5959 89.4798 51.5959C87.3279 51.5959 85.5263 50.8953 84.025 49.444C82.5236 47.9927 81.7729 46.141 81.7729 43.889C81.7729 41.637 82.5236 39.7853 84.025 38.3841C85.5263 36.9828 87.3279 36.2322 89.4798 36.2322C91.5817 36.2322 93.3833 36.9328 94.7846 38.3341C96.1858 39.7353 96.8864 41.587 96.9365 43.9391L97.0366 45.0901ZM87.6782 40.536C87.0777 40.9364 86.6773 41.4869 86.4771 42.2375H92.4825C92.2823 41.4869 91.882 40.8863 91.3815 40.536C90.8811 40.1357 90.2305 39.9355 89.5799 39.9355C88.8793 39.9355 88.2788 40.1357 87.6782 40.536Z" fill="white"/>
<path d="M106.345 56.0001H101.34L103.692 50.5953L97.687 36.5327H102.641L106.095 44.9903L109.748 36.5327H114.702L106.345 56.0001Z" fill="white"/>
<path d="M119.807 46.3912C120.007 47.5423 120.858 48.0927 122.409 48.0927C123.01 48.0927 123.46 47.9927 123.811 47.7424C124.161 47.4922 124.311 47.242 124.311 46.8917C124.311 46.3412 123.811 45.9909 122.86 45.8407L119.907 45.2402C117.105 44.6897 115.703 43.2885 115.703 41.0365C115.703 39.5351 116.304 38.3841 117.455 37.4833C118.606 36.5825 120.107 36.1321 121.959 36.1321C123.71 36.1321 125.212 36.5324 126.363 37.2831C127.514 38.0338 128.265 39.0347 128.515 40.3358L124.311 41.1866C124.211 40.6861 123.961 40.2858 123.51 39.9855C123.06 39.6852 122.509 39.4851 121.859 39.4851C121.258 39.4851 120.858 39.5852 120.608 39.8354C120.357 40.0856 120.207 40.3358 120.207 40.6361C120.207 41.1365 120.608 41.4869 121.308 41.637L124.711 42.3376C126.063 42.5878 127.063 43.1383 127.714 43.889C128.365 44.6397 128.715 45.5905 128.715 46.6915C128.715 48.2429 128.114 49.494 126.913 50.2947C125.712 51.1455 124.111 51.5458 122.159 51.5458C120.357 51.5458 118.806 51.1955 117.555 50.4949C116.304 49.7943 115.603 48.7433 115.353 47.292L119.807 46.3912Z" fill="white"/>
</svg>
