<svg width="67" height="50" viewBox="0 0 67 50" fill="none" xmlns="http://www.w3.org/2000/svg">
<path d="M27.8889 38.115C26.5174 38.6692 24.9367 39.0156 23.7047 39.0156C20.613 39.0156 18.7534 37.4684 18.7534 33.658V20.9105H29.6788V11.6039H18.7534V0.75H6.96794V11.6039H0.25V20.9105H6.96794V34.8357C6.96794 44.5118 12.5004 49.5 21.7288 49.5C25.913 49.5 28.9349 48.3453 31.7941 46.8212L27.8889 38.115Z" fill="white"/>
<path d="M66.2058 37.9215C66.2058 44.1413 60.8896 49.4998 54.7831 49.4998C48.6048 49.4998 43.2646 44.1413 43.2646 37.9215C43.2646 31.7497 48.6288 26.5586 54.7831 26.5586C60.8896 26.5586 66.2058 31.7497 66.2058 37.9215Z" fill="white"/>
</svg>
